<svg xmlns="http://www.w3.org/2000/svg" aria-hidden="true" style="position:absolute;width:0;height:0;overflow:hidden">
    <defs>
        <symbol id="icon-chocolate" viewBox="0 0 32 32">
            <path d="M3.944 20.076 14.721 2.652l.64-.674 8.236 5.491.056 3.314 2.01 3.28-8.88 14.077-12.839-8.063z" />
            <path stroke-linecap="round" stroke-linejoin="round" stroke-width="2.667"
                d="M22.097 23.031 7.911 14.167m3.913-6.417 14.185 8.864m-14.916 8.402 11.736-19.25m4.81 8.175c-3.04-1.899-4.234-3.384-2.278-6.592l-9.626-6.015-11.736 19.25 14.186 8.864 9.454-15.507z" />
        </symbol>
        <symbol id="icon-facebook" viewBox="0 0 32 32">
            <path
                d="M19.52 4.64h.96v3.6h-1.2c-.48 0-.96 0-1.2.24s-.24.48-.24 1.04v1.28h2.64v3.04h-2.64v13.2h-4.08V13.76H11.6v-3.04h2.16V9.68c0-1.76.24-3.04.72-3.6.72-1.04 2.16-1.52 4.32-1.52.24.08.48.08.72.08z" />
        </symbol>
        <symbol id="icon-instagram" viewBox="0 0 32 32">
            <path
                d="M28.718 10.756a9.264 9.264 0 0 0-.596-3.145 6.547 6.547 0 0 0-3.743-3.737 9.42 9.42 0 0 0-3.108-.596c-1.367-.061-1.801-.078-5.273-.078s-3.916 0-5.274.078a9.418 9.418 0 0 0-3.106.596 6.541 6.541 0 0 0-3.743 3.737 9.288 9.288 0 0 0-.596 3.101c-.061 1.367-.08 1.8-.08 5.265s0 3.909.08 5.265a9.335 9.335 0 0 0 .596 3.104 6.548 6.548 0 0 0 3.744 3.735 9.37 9.37 0 0 0 3.106.639c1.369.061 1.803.079 5.274.079s3.917 0 5.274-.079a9.362 9.362 0 0 0 3.108-.595 6.555 6.555 0 0 0 3.743-3.737 9.346 9.346 0 0 0 .596-3.104c.061-1.365.08-1.798.08-5.265-.003-3.466-.003-3.906-.082-5.264zM15.99 22.531c-3.631 0-6.572-2.936-6.572-6.561s2.941-6.561 6.572-6.561c3.628 0 6.572 2.936 6.572 6.561s-2.944 6.561-6.572 6.561zm6.834-11.835a1.53 1.53 0 1 1 0-3.06 1.53 1.53 0 1 1 0 3.06z" />
            <path d="M15.992 19.976a4.004 4.004 0 1 0 0-8.009 4.004 4.004 0 0 0 0 8.009z" />
        </symbol>
        <symbol id="icon-twitter" viewBox="0 0 32 32">
            <path
                d="M29.333 7.898c-.992.435-2.048.723-3.15.863a5.44 5.44 0 0 0 2.405-3.022 10.916 10.916 0 0 1-3.467 1.323 5.465 5.465 0 0 0-9.456 3.738c0 .433.037.85.127 1.247-4.545-.222-8.567-2.4-11.268-5.718a5.5 5.5 0 0 0-.748 2.763c0 1.893.975 3.572 2.428 4.543a5.412 5.412 0 0 1-2.47-.673v.06a5.493 5.493 0 0 0 4.38 5.372c-.445.122-.93.18-1.433.18-.35 0-.703-.02-1.035-.093.708 2.165 2.718 3.757 5.108 3.808a10.985 10.985 0 0 1-6.778 2.332c-.448 0-.878-.02-1.308-.075a15.39 15.39 0 0 0 8.387 2.453c10.06 0 15.56-8.333 15.56-15.557 0-.242-.008-.475-.02-.707a10.91 10.91 0 0 0 2.74-2.838z" />
        </symbol>
        <symbol id="icon-Group" viewBox="0 0 32 32">
            <path stroke-linecap="round" stroke-linejoin="round" stroke-width="1.333"
                d="M9.143 16h13.714m0 0-3.429-3.429M22.857 16l-3.429 3.429M16 30.857c8.205 0 14.857-6.652 14.857-14.857S24.205 1.143 16 1.143C7.795 1.143 1.143 7.795 1.143 16S7.795 30.857 16 30.857z" />
        </symbol>
        <symbol id="icon-icons" viewBox="0 0 32 32">
            <path stroke-width=".516"
                d="M16 .258C24.694.258 31.742 7.306 31.742 16S24.694 31.742 16 31.742.258 24.694.258 16 7.306.258 16 .258z" />
            <path
                d="M15.717 15.022a2.66 2.66 0 0 1-.607-1.694c0-2.232 2.674-4.46 5.348-4.46a2.675 2.675 0 0 1 2.674 2.675c0 2.675-2.228 5.349-4.462 5.349a2.662 2.662 0 0 1-1.694-.607l-6.585 6.586a.893.893 0 0 1-1.262-1.262l6.588-6.586z" />
        </symbol>
        <symbol id="icon-icons-1" viewBox="0 0 32 32">
            <path stroke-width=".516"
                d="M16 .258C24.694.258 31.742 7.306 31.742 16S24.694 31.742 16 31.742.258 24.694.258 16 7.306.258 16 .258z" />
            <path
                d="M16 9.118c-3.785 0-6.882 3.097-6.882 6.882s3.097 6.882 6.882 6.882 6.882-3.097 6.882-6.882c0-3.785-3.097-6.882-6.882-6.882zm0 12.387c-3.028 0-5.505-2.477-5.505-5.505s2.477-5.505 5.505-5.505 5.505 2.477 5.505 5.505-2.477 5.505-5.505 5.505z" />
            <path
                d="M16.895 15.312h-1.789c-.344 0-.619-.275-.619-.619s.275-.619.619-.619h2.546c.413 0 .688-.275.688-.688s-.275-.688-.688-.688h-.963v-.619c0-.413-.275-.688-.688-.688s-.688.275-.688.688v.619h-.206c-1.101 0-1.996.895-1.996 1.996s.895 1.996 1.996 1.996h1.72c.344 0 .619.275.619.619s-.275.619-.619.619h-2.546c-.413 0-.688.275-.688.688s.275.688.688.688h1.032v.619c0 .413.275.688.688.688s.688-.275.688-.688v-.619h.206c1.101 0 1.996-.895 1.996-1.996s-.895-1.996-1.996-1.996z" />
        </symbol>
        <symbol id="icon-icons-2" viewBox="0 0 32 32">
            <path stroke-width=".516"
                d="M16 .258C24.694.258 31.742 7.306 31.742 16S24.694 31.742 16 31.742.258 24.694.258 16 7.306.258 16 .258z" />
            <path
                d="m14.876 8.988 3.885 3.89.041-.041a.442.442 0 0 1 .611-.007l.451.451a.438.438 0 0 1 .043.565l-.002.004-.074.099 3.179 3.179a.72.72 0 0 1 0 1.022l-4.867 4.867a.72.72 0 0 1-1.022 0l-2.295-2.295c-.038.048-.086.087-.14.116s-.114.045-.175.048a.444.444 0 0 1-.333-.127l-1.342-1.342a.442.442 0 0 1-.007-.611l.003-.004.04-.039-3.885-3.885a.72.72 0 0 1 0-1.022l4.867-4.867a.72.72 0 0 1 1.022 0v.001zm3.397 4.376-.906-.906a.301.301 0 0 0-.338-.069.29.29 0 0 0-.1.069l-1.848 1.848c-.029.029-.053.064-.068.102s-.024.079-.024.12a.31.31 0 0 0 .092.222l.903.903.315-.315-.808-.808 1.657-1.662.81.812.316-.316zm-2.62 2.618-.905-.905a.301.301 0 0 0-.338-.069.29.29 0 0 0-.1.069l-1.853 1.853a.306.306 0 0 0 0 .439l.904.904.318-.318-.81-.807 1.662-1.657.807.807.316-.315zm-3.358-4.011 1.848 1.848c.124.124.32.124.439-.005l1.848-1.848a.296.296 0 0 0 .093-.217h.005a.318.318 0 0 0-.093-.222l-1.848-1.848a.31.31 0 0 0-.444 0l-1.848 1.853a.306.306 0 0 0 0 .439zm-2.616 2.617 1.848 1.848c.124.124.32.124.439 0l1.848-1.848a.293.293 0 0 0 .093-.222h.005a.308.308 0 0 0-.093-.222l-1.848-1.848a.301.301 0 0 0-.338-.069.29.29 0 0 0-.1.069L9.68 14.149a.306.306 0 0 0 0 .439zm3.578 4.518 1.219 1.22 4.973-6.73-.338-.338-5.854 5.849z" />
            <path
                d="m14.876 8.988 3.885 3.89.041-.041a.442.442 0 0 1 .611-.007l.451.451a.438.438 0 0 1 .043.565l-.002.004-.074.099 3.179 3.179a.72.72 0 0 1 0 1.022l-4.867 4.867a.72.72 0 0 1-1.022 0l-2.295-2.295c-.038.048-.086.087-.14.116s-.114.045-.175.048a.444.444 0 0 1-.333-.127l-1.342-1.342a.442.442 0 0 1-.007-.611l.003-.004.04-.039-3.885-3.885a.72.72 0 0 1 0-1.022l4.867-4.867a.72.72 0 0 1 1.022 0v.001zm3.397 4.376-.906-.906a.301.301 0 0 0-.338-.069.29.29 0 0 0-.1.069l-1.848 1.848c-.029.029-.053.064-.068.102s-.024.079-.024.12a.31.31 0 0 0 .092.222l.903.903.315-.315-.808-.808 1.657-1.662.81.812.316-.316zm-2.62 2.618-.905-.905a.301.301 0 0 0-.338-.069.29.29 0 0 0-.1.069l-1.853 1.853a.306.306 0 0 0 0 .439l.904.904.318-.318-.81-.807 1.662-1.657.807.807.316-.315zm-3.358-4.011 1.848 1.848c.124.124.32.124.439-.005l1.848-1.848a.296.296 0 0 0 .093-.217h.005a.318.318 0 0 0-.093-.222l-1.848-1.848a.31.31 0 0 0-.444 0l-1.848 1.853a.306.306 0 0 0 0 .439zm-2.616 2.617 1.848 1.848c.124.124.32.124.439 0l1.848-1.848a.293.293 0 0 0 .093-.222h.005a.308.308 0 0 0-.093-.222l-1.848-1.848a.301.301 0 0 0-.338-.069.29.29 0 0 0-.1.069L9.68 14.149a.306.306 0 0 0 0 .439zm3.578 4.518 1.219 1.22 4.973-6.73-.338-.338-5.854 5.849z" />
        </symbol>
        <symbol id="icon-mail" viewBox="0 0 32 32">
            <path stroke-linecap="round" stroke-linejoin="round" stroke-width="2.667"
                d="M5.333 5.333h21.333c1.467 0 2.667 1.2 2.667 2.667v16c0 1.467-1.2 2.667-2.667 2.667H5.333A2.675 2.675 0 0 1 2.666 24V8c0-1.467 1.2-2.667 2.667-2.667z" />
            <path stroke-linecap="round" stroke-linejoin="round" stroke-width="2.667" d="M29.333 8 16 17.333 2.667 8" />
        </symbol>
        <symbol id="icon-phone" viewBox="0 0 32 32">
            <path stroke-linecap="round" stroke-linejoin="round" stroke-width="2.667"
                d="M29.333 22.56v4a2.655 2.655 0 0 1-1.812 2.537 2.672 2.672 0 0 1-1.094.13 26.398 26.398 0 0 1-11.507-4.093 25.988 25.988 0 0 1-8-8 26.382 26.382 0 0 1-4.093-11.56 2.657 2.657 0 0 1 .687-2.038 2.664 2.664 0 0 1 1.967-.868h4a2.67 2.67 0 0 1 2.667 2.294 17.16 17.16 0 0 0 .933 3.747 2.675 2.675 0 0 1-.6 2.814l-1.693 1.693a21.333 21.333 0 0 0 8 8l1.693-1.693c.362-.359.82-.606 1.319-.712s1.017-.067 1.495.112c1.21.451 2.467.765 3.747.933a2.665 2.665 0 0 1 2.293 2.707z" />
        </symbol>
        <symbol id="icon-user" viewBox="0 0 32 32">
            <path stroke-linecap="round" stroke-linejoin="round" stroke-width="2.667"
                d="M26.667 28v-2.667A5.332 5.332 0 0 0 21.334 20H10.667a5.332 5.332 0 0 0-5.333 5.333V28M16 14.667A5.333 5.333 0 1 0 16 4a5.333 5.333 0 0 0 0 10.667z" />
        </symbol>
    </defs>
</svg>